<svg xmlns="http://www.w3.org/2000/svg" width="32" height="32" viewBox="0 0 32 32">
  <rect width="32" height="32" rx="4" fill="#1e3a8a"/>
  <path d="M8 10h4c1.5 0 2.5 0.5 3 1.5 0.5 1 0.5 2 0 3 -0.5 1-1.5 1.5-3 1.5h-2v4h-2v-10zm2 4h2c0.5 0 1-0.2 1.2-0.6 0.2-0.4 0.2-0.8 0-1.2 -0.2-0.4-0.7-0.6-1.2-0.6h-2v2.4z" fill="#ffffff"/>
  <path d="M16 10h6v2h-4v2h3v2h-3v2h4v2h-6v-10z" fill="#ffffff"/>
  <path d="M23 10h2c1.5 0 2.5 0.5 3 1.5 0.5 1 0.5 2 0 3 -0.5 1-1.5 1.5-3 1.5h-2v-6zm2 4c0.5 0 1-0.2 1.2-0.6 0.2-0.4 0.2-0.8 0-1.2 -0.2-0.4-0.7-0.6-1.2-0.6h-0v2.4z" fill="#ffffff"/>
  <path d="M23 18h2v2h-2v-2z" fill="#ffffff"/>
</svg>