<svg xmlns="http://www.w3.org/2000/svg" viewBox="0 0 800 400">
  <!-- Arco azul claro -->
  <path d="M100,200 Q400,50 800,100" fill="none" stroke="#4A9FD8" stroke-width="30" />
  
  <!-- Arco azul escuro -->
  <path d="M50,300 Q350,100 800,150" fill="none" stroke="#283583" stroke-width="40" />
  
  <!-- Texto AEDUC -->
  <g transform="translate(340, 450)">
    <path d="M0,-150 L40,-250 L80,-150 L60,-150 L50,-180 L30,-180 L20,-150 Z M40,-210 L45,-195 L35,-195 Z" fill="#283583" />
    <path d="M100,-150 C130,-150 150,-170 150,-200 C150,-230 130,-250 100,-250 L70,-250 L70,-150 Z M100,-180 L100,-220 C115,-220 120,-210 120,-200 C120,-190 115,-180 100,-180 Z" fill="#283583" />
    <path d="M170,-150 L170,-250 L240,-250 L240,-220 L200,-220 L200,-210 L230,-210 L230,-180 L200,-180 L200,-150 Z" fill="#283583" />
    <path d="M260,-150 L260,-250 L290,-250 C320,-250 340,-230 340,-200 C340,-170 320,-150 290,-150 Z M290,-180 L290,-220 C305,-220 310,-210 310,-200 C310,-190 305,-180 290,-180 Z" fill="#283583" />
    <path d="M360,-150 C390,-150 410,-170 410,-200 C410,-230 390,-250 360,-250 C330,-250 310,-230 310,-200 C310,-170 330,-150 360,-150 Z M360,-180 C345,-180 340,-190 340,-200 C340,-210 345,-220 360,-220 C375,-220 380,-210 380,-200 C380,-190 375,-180 360,-180 Z" fill="#283583" />
  </g>
  
  <!-- Texto da Associação -->
  <text x="400" y="300" font-family="Arial, sans-serif" font-size="24" text-anchor="middle" fill="#283583">Associação de Reitores, Diretores e</text>
  <text x="400" y="330" font-family="Arial, sans-serif" font-size="24" text-anchor="middle" fill="#283583">Professores de Instituições Educacionais.</text>
</svg>